<svg xmlns="http://www.w3.org/2000/svg" xmlns:xlink="http://www.w3.org/1999/xlink" width="500" zoomAndPan="magnify" viewBox="0 0 375 374.999991" height="500" preserveAspectRatio="xMidYMid meet" version="1.0"><defs><clipPath id="31f7f2fa48"><path d="M 81.5625 37.5 L 293.8125 37.5 L 293.8125 337.5 L 81.5625 337.5 Z M 81.5625 37.5 " clip-rule="nonzero"/></clipPath><clipPath id="3bc1e1873b"><path d="M 37.5 235.5625 L 187.5 235.5625 L 187.5 325.5625 L 37.5 325.5625 Z M 37.5 235.5625 " clip-rule="nonzero"/></clipPath><clipPath id="8013237ada"><path d="M 187.5 70.171875 L 225 70.171875 L 225 130.921875 L 187.5 130.921875 Z M 187.5 70.171875 " clip-rule="nonzero"/></clipPath><clipPath id="a43c59a468"><path d="M 226 70.171875 L 264 70.171875 L 264 130.921875 L 226 130.921875 Z M 226 70.171875 " clip-rule="nonzero"/></clipPath></defs><g clip-path="url(#31f7f2fa48)"><path fill="#000000" d="M 293.578125 322.882812 C 293.578125 330.953125 287.019531 337.5 278.933594 337.5 L 96.363281 337.5 C 88.277344 337.5 81.722656 330.953125 81.722656 322.882812 L 81.722656 52.121094 C 81.722656 44.046875 88.277344 37.5 96.363281 37.5 L 278.933594 37.5 C 287.019531 37.5 293.578125 44.046875 293.578125 52.121094 L 293.578125 322.882812 " fill-opacity="1" fill-rule="nonzero"/></g><path fill="#ffffff" d="M 286.714844 316.394531 C 286.714844 323.945312 280.582031 330.066406 273.019531 330.066406 L 102.277344 330.066406 C 94.714844 330.066406 88.582031 323.945312 88.582031 316.394531 L 88.582031 57.84375 C 88.582031 50.292969 94.714844 44.175781 102.277344 44.175781 L 273.019531 44.175781 C 280.582031 44.175781 286.714844 50.292969 286.714844 57.84375 L 286.714844 316.394531 " fill-opacity="1" fill-rule="nonzero"/><path fill="#ffde59" d="M 94.328125 221.261719 L 94.328125 64.453125 C 94.328125 57.339844 100.105469 51.574219 107.230469 51.574219 L 268.070312 51.574219 C 275.195312 51.574219 280.972656 57.339844 280.972656 64.453125 L 280.972656 137.386719 L 94.328125 221.261719 " fill-opacity="1" fill-rule="nonzero"/><path fill="#ffde59" d="M 94.328125 263.199219 L 280.972656 179.324219 L 280.972656 154.59375 L 94.328125 238.46875 L 94.328125 263.199219 " fill-opacity="1" fill-rule="nonzero"/><path fill="#ffde59" d="M 94.328125 291.992188 L 280.972656 208.117188 L 280.972656 195.570312 L 94.328125 279.445312 L 94.328125 291.992188 " fill-opacity="1" fill-rule="nonzero"/><g clip-path="url(#3bc1e1873b)"><path fill="#000000" d="M 142.464844 325.355469 C 142.117188 325.421875 141.804688 325.492188 141.523438 325.492188 C 140.65625 325.527344 139.75 325.527344 138.878906 325.492188 C 138.671875 325.492188 138.460938 325.25 138.183594 325.109375 C 137.976562 325.25 137.765625 325.421875 137.660156 325.492188 C 137.140625 325.320312 136.6875 325.214844 136.304688 324.96875 C 136.0625 324.832031 135.921875 324.480469 135.78125 324.238281 C 135.679688 324.027344 135.609375 323.75 135.574219 323.574219 C 134.285156 323.328125 133.554688 322.457031 132.929688 321.445312 C 132.859375 321.304688 132.789062 321.128906 132.648438 321.058594 L 131.398438 320.429688 C 131.328125 320.398438 131.328125 320.257812 131.292969 320.1875 C 131.015625 319.839844 130.703125 319.558594 130.492188 319.175781 C 130.25 318.789062 130.074219 318.371094 129.902344 317.988281 C 129.796875 317.777344 129.796875 317.570312 129.726562 317.359375 C 128.753906 317.605469 127.8125 317.011719 127.605469 316.03125 C 127.5 315.507812 127.152344 315.265625 126.769531 315.335938 C 126.523438 315.371094 126.351562 315.824219 126.175781 316.136719 C 126.074219 316.347656 126.003906 316.554688 125.863281 316.835938 C 125.585938 316.589844 125.410156 316.453125 125.273438 316.3125 C 124.890625 316.488281 124.542969 316.660156 124.195312 316.835938 C 123.878906 317.011719 123.566406 317.21875 123.253906 317.394531 C 123.042969 317.394531 122.695312 317.324219 122.488281 317.464844 C 121.828125 317.847656 120.921875 317.847656 120.433594 318.652344 C 120.332031 318.824219 119.84375 318.753906 119.566406 318.824219 C 119.042969 319 118.519531 319.210938 117.894531 319.453125 C 117.511719 319.175781 115.492188 319.3125 115.003906 319.769531 C 114.761719 319.210938 114.414062 319.140625 113.925781 319.488281 C 112.917969 320.257812 111.769531 320.398438 110.550781 320.429688 C 110.027344 320.464844 109.472656 320.640625 108.949219 320.675781 C 107.488281 320.710938 106.027344 320.710938 104.53125 320.675781 C 103.800781 320.640625 103.070312 320.5 102.199219 320.398438 C 102.164062 320.328125 102.023438 320.117188 101.886719 319.839844 C 101.675781 320.011719 101.46875 320.152344 101.257812 320.328125 C 100.804688 319.769531 100.25 320.222656 99.726562 320.1875 C 99.484375 320.1875 99.242188 320.257812 98.960938 320.257812 C 98.476562 320.292969 97.988281 320.328125 97.5 320.292969 C 96.804688 320.257812 96.109375 320.152344 95.414062 320.046875 C 94.855469 319.976562 94.296875 319.769531 93.742188 319.734375 C 93.046875 319.664062 92.488281 319.417969 91.898438 319.035156 C 91.445312 318.753906 90.820312 318.753906 90.539062 318.128906 C 90.332031 318.300781 90.121094 318.441406 89.878906 318.617188 C 89.808594 318.40625 89.738281 318.230469 89.671875 318.09375 C 89.601562 318.09375 89.566406 318.09375 89.53125 318.128906 C 88.972656 318.6875 88.382812 318.265625 87.824219 318.195312 C 86.851562 318.058594 85.945312 317.707031 84.972656 317.5 C 84.171875 317.324219 83.476562 317.011719 82.8125 316.554688 C 82.5 316.347656 82.082031 316.347656 81.769531 316.136719 C 81.421875 315.894531 81.179688 315.507812 80.832031 315.265625 C 80.585938 315.089844 80.273438 314.984375 79.996094 314.984375 C 79.160156 314.949219 78.535156 314.496094 77.835938 314.078125 C 77.035156 313.589844 76.0625 313.449219 75.191406 313.101562 C 74.808594 312.960938 74.496094 312.644531 74.148438 312.472656 C 73.382812 312.085938 72.617188 311.703125 71.851562 311.390625 C 71.261719 311.109375 70.632812 310.902344 70.042969 310.691406 C 69.902344 310.65625 69.761719 310.65625 69.589844 310.65625 C 69.519531 310.097656 69.242188 309.855469 68.613281 309.820312 C 68.335938 309.820312 68.058594 309.398438 67.746094 309.226562 C 67.464844 309.050781 67.1875 308.839844 66.910156 308.667969 C 66.632812 308.492188 66.285156 308.421875 66.039062 308.210938 C 65.484375 307.722656 64.960938 307.234375 64.472656 306.675781 C 63.917969 306.046875 63.429688 305.351562 62.871094 304.722656 C 62.769531 304.617188 62.457031 304.722656 62.210938 304.722656 C 62.175781 304.546875 62.105469 304.335938 62.039062 304.09375 C 61.585938 304.335938 61.132812 304.058594 61.132812 303.464844 C 61.132812 302.835938 60.925781 302.871094 60.472656 303.117188 C 60.332031 303.1875 60.089844 303.21875 59.984375 303.117188 C 59.460938 302.695312 58.941406 302.207031 58.453125 301.753906 C 57.894531 301.230469 57.339844 300.742188 56.816406 300.21875 C 56.609375 300.007812 56.539062 299.695312 56.332031 299.519531 C 55.597656 298.820312 54.9375 297.914062 54.066406 297.496094 C 53.441406 297.144531 53.234375 296.550781 52.78125 296.273438 C 52.085938 295.855469 51.910156 295.085938 51.320312 294.632812 C 51.074219 294.457031 51.003906 293.96875 50.796875 293.691406 C 50.449219 293.269531 50.066406 292.816406 49.71875 292.398438 C 49.023438 291.527344 48.289062 290.6875 47.628906 289.78125 C 47.140625 289.117188 46.757812 288.382812 46.34375 287.683594 C 45.960938 287.058594 45.609375 286.394531 45.296875 285.730469 C 45.019531 285.136719 44.777344 284.472656 44.671875 283.84375 C 44.496094 282.832031 44.148438 281.960938 43.453125 281.191406 C 43.105469 280.808594 42.863281 280.179688 42.792969 279.65625 C 42.652344 278.46875 41.957031 277.5625 41.539062 276.546875 C 41.226562 275.78125 41.15625 274.90625 40.949219 274.105469 C 40.878906 273.753906 40.703125 273.40625 40.601562 273.09375 C 40.496094 272.742188 40.355469 272.394531 40.320312 272.046875 C 40.285156 271.523438 40.285156 271.03125 40.007812 270.542969 C 39.800781 270.195312 39.867188 269.671875 39.9375 269.21875 C 40.042969 268.308594 39.730469 267.578125 39.242188 266.84375 C 38.652344 265.902344 38.164062 264.921875 38.128906 263.738281 C 38.164062 262.128906 37.851562 260.628906 37.746094 259.128906 C 37.640625 257.207031 37.640625 255.21875 37.605469 253.261719 C 37.570312 252.042969 37.46875 250.785156 37.503906 249.5625 C 37.539062 248.691406 37.746094 247.816406 37.851562 246.910156 C 37.988281 245.792969 38.023438 244.640625 38.234375 243.523438 C 38.371094 242.859375 38.789062 242.265625 38.964844 241.601562 C 39.277344 240.484375 39.800781 239.542969 40.738281 238.773438 C 41.296875 238.320312 41.644531 237.519531 42.027344 236.855469 C 42.234375 236.4375 42.375 236.261719 42.929688 236.261719 C 43.664062 236.261719 44.429688 235.84375 45.367188 235.527344 C 45.960938 236.367188 46.691406 237.449219 47.457031 238.496094 C 47.699219 238.808594 48.011719 239.089844 48.257812 239.4375 C 48.464844 239.71875 48.707031 239.960938 48.8125 240.277344 C 48.988281 240.730469 49.160156 241.113281 49.683594 241.21875 C 49.71875 241.21875 49.71875 241.21875 49.753906 241.253906 C 50.585938 242.089844 51.386719 242.929688 52.222656 243.765625 C 52.398438 243.941406 52.535156 244.082031 52.675781 244.257812 L 54.277344 245.863281 C 54.414062 246 54.625 246.070312 54.730469 246.246094 C 55.007812 246.628906 55.214844 247.082031 55.53125 247.574219 C 55.667969 247.433594 55.878906 247.292969 56.085938 247.117188 C 56.609375 247.363281 57.0625 247.640625 57.0625 248.304688 C 57.0625 248.410156 57.199219 248.585938 57.304688 248.621094 C 58.210938 248.863281 58.523438 249.808594 59.183594 250.261719 C 59.878906 250.714844 60.191406 251.378906 60.679688 251.972656 C 61.410156 252.914062 62.210938 253.820312 62.976562 254.730469 C 63.046875 254.835938 63.222656 254.9375 63.289062 254.9375 C 63.777344 254.867188 63.8125 255.183594 63.882812 255.566406 C 63.917969 255.777344 64.195312 255.984375 64.371094 256.125 C 64.753906 256.441406 65.414062 256.511719 65.238281 257.242188 C 65.449219 257.207031 65.65625 257.101562 65.761719 257.171875 C 66.421875 257.558594 67.015625 258.011719 67.640625 258.429688 C 67.746094 258.5 67.816406 258.535156 67.917969 258.605469 C 68.683594 259.023438 69.484375 259.40625 70.214844 259.828125 C 70.527344 260 70.808594 260.316406 71.121094 260.558594 C 72.546875 261.710938 73.941406 262.863281 75.367188 263.980469 C 75.75 264.296875 76.269531 264.46875 76.722656 264.679688 C 76.792969 264.714844 76.898438 264.714844 76.898438 264.75 C 77.070312 265.550781 77.835938 265.414062 78.359375 265.65625 C 79.335938 266.144531 80.34375 266.527344 80.691406 267.820312 C 80.898438 268.519531 81.421875 269.148438 81.074219 269.949219 C 81.003906 270.125 80.933594 270.300781 80.796875 270.40625 C 80.101562 271.066406 79.367188 271.730469 78.707031 272.429688 C 78.253906 272.882812 77.835938 273.40625 77.417969 273.929688 C 76.96875 274.523438 76.480469 275.152344 76.097656 275.78125 C 75.4375 276.933594 74.773438 278.085938 74.253906 279.304688 C 73.800781 280.320312 73.523438 281.402344 73.242188 282.484375 C 73.140625 282.832031 73.140625 283.285156 73.277344 283.601562 C 73.625 284.4375 73.972656 284.648438 75.054688 284.300781 C 76.027344 283.984375 76.933594 284.230469 77.871094 284.265625 C 78.847656 284.300781 79.855469 284.332031 80.832031 284.367188 C 81.945312 284.4375 83.09375 284.542969 84.207031 284.613281 C 85.007812 284.648438 85.773438 284.824219 86.539062 284.4375 C 86.921875 284.265625 87.40625 284.332031 87.824219 284.230469 C 88.589844 284.019531 89.320312 283.496094 90.054688 283.53125 C 91.269531 283.601562 92.351562 283.078125 93.464844 282.832031 C 93.671875 282.796875 93.847656 282.519531 93.949219 282.449219 C 94.230469 282.484375 94.4375 282.589844 94.613281 282.519531 C 95.273438 282.308594 95.828125 281.890625 96.59375 281.996094 C 96.875 282.03125 97.1875 281.679688 97.5 281.539062 C 98.371094 281.15625 99.242188 280.667969 100.144531 280.527344 C 100.839844 280.421875 101.257812 280.109375 101.675781 279.65625 C 101.710938 279.621094 101.746094 279.585938 101.78125 279.585938 C 102.859375 279.65625 103.519531 278.679688 104.496094 278.433594 C 105.050781 278.292969 105.367188 277.003906 104.949219 276.410156 C 104.460938 275.710938 104.21875 274.769531 103.382812 274.3125 C 103.347656 274.28125 103.3125 274.175781 103.277344 274.140625 C 102.304688 272.742188 101.292969 271.382812 100.320312 269.984375 C 100.285156 269.949219 100.25 269.914062 100.25 269.878906 C 100.144531 268.449219 99.378906 267.226562 98.859375 265.9375 C 98.824219 265.832031 98.789062 265.691406 98.71875 265.621094 C 97.1875 264.261719 97.1875 262.410156 97.046875 260.59375 L 96.734375 256.824219 C 96.699219 256.265625 97.117188 255.460938 97.640625 255.183594 L 97.742188 255.078125 C 98.371094 253.855469 99.832031 253.960938 100.703125 253.191406 C 101.328125 252.632812 101.988281 252.703125 102.6875 252.601562 C 103 252.566406 103.277344 252.285156 103.554688 252.109375 C 103.695312 252.042969 103.835938 251.902344 104.007812 251.867188 C 104.667969 251.761719 105.332031 251.761719 105.957031 251.585938 C 106.234375 251.519531 106.480469 251.203125 106.6875 251.0625 C 106.964844 251.132812 107.246094 251.238281 107.523438 251.238281 C 108.253906 251.238281 109.019531 251.832031 109.785156 251.203125 C 109.855469 251.167969 109.960938 251.203125 110.0625 251.203125 C 110.933594 251.167969 111.839844 251.0625 112.707031 251.097656 C 113.613281 251.132812 114.519531 251.308594 115.457031 251.378906 C 116.1875 251.414062 116.886719 251.34375 117.617188 251.34375 C 117.683594 251.34375 117.753906 251.308594 117.824219 251.34375 C 118.625 251.902344 119.496094 251.867188 120.398438 251.867188 C 120.539062 251.867188 120.679688 251.9375 120.78125 252.007812 C 121.410156 252.355469 122.070312 252.285156 122.59375 251.761719 C 123.011719 252.25 123.460938 252.632812 124.160156 252.355469 C 124.296875 252.285156 124.542969 252.53125 124.785156 252.667969 C 124.890625 252.53125 125.027344 252.390625 125.132812 252.285156 C 125.375 252.355469 125.621094 252.425781 125.828125 252.496094 C 127.429688 252.738281 129.03125 253.054688 130.667969 253.226562 C 131.917969 253.367188 133.207031 253.4375 134.355469 254.03125 C 134.460938 254.066406 134.5625 254.066406 134.703125 254.101562 C 135.46875 254.171875 136.199219 254.277344 136.964844 254.34375 C 137.035156 254.34375 137.105469 254.378906 137.175781 254.34375 C 137.941406 253.820312 138.601562 254.449219 139.296875 254.554688 C 139.921875 254.660156 140.550781 254.765625 141.175781 254.902344 C 141.558594 254.972656 141.90625 255.148438 142.253906 255.183594 C 142.777344 255.21875 143.265625 255.183594 143.785156 255.183594 C 143.960938 255.183594 144.167969 255.042969 144.273438 255.113281 C 145.144531 255.636719 146.152344 255.289062 147.09375 255.496094 C 147.789062 255.636719 148.554688 255.496094 149.285156 255.496094 C 149.597656 255.496094 149.945312 255.53125 150.226562 255.671875 C 150.78125 255.953125 151.199219 255.984375 151.410156 255.394531 C 151.757812 255.53125 152.105469 255.742188 152.417969 255.742188 C 154.402344 255.882812 156.386719 255.917969 158.332031 256.089844 C 158.996094 256.125 159.621094 256.441406 160.28125 256.542969 C 160.769531 256.613281 161.292969 256.578125 161.8125 256.578125 C 162.09375 256.578125 162.371094 256.542969 162.648438 256.578125 C 163.796875 256.824219 164.945312 257.101562 166.128906 257.3125 C 166.40625 257.347656 166.753906 257.136719 167 257.242188 C 167.730469 257.59375 168.53125 257.523438 169.296875 257.660156 C 169.46875 257.695312 169.679688 257.800781 169.820312 257.90625 C 170.132812 258.117188 170.410156 258.082031 170.792969 258.046875 C 171.382812 257.976562 172.011719 258.152344 172.636719 258.253906 C 173.054688 258.289062 173.4375 258.359375 173.855469 258.394531 C 174.414062 258.464844 174.96875 258.535156 175.527344 258.570312 C 176.222656 258.640625 176.917969 258.640625 177.613281 258.710938 C 177.996094 258.746094 178.378906 258.847656 178.796875 258.917969 C 178.902344 258.953125 179.039062 259.023438 179.109375 258.988281 C 180.539062 258.746094 181.824219 259.546875 183.183594 259.546875 C 183.914062 259.546875 184.191406 259.859375 184.46875 260.453125 C 184.679688 260.839844 185.097656 261.117188 185.410156 261.46875 C 185.617188 261.710938 185.828125 261.957031 186 262.234375 C 186.941406 263.667969 187.289062 265.308594 187.429688 266.949219 C 187.496094 267.75 187.324219 268.589844 187.148438 269.390625 C 186.800781 271.03125 186.382812 272.671875 185.929688 274.28125 C 185.863281 274.488281 185.6875 274.664062 185.546875 274.839844 C 185.480469 274.941406 185.339844 275.011719 185.269531 275.152344 C 184.921875 276.058594 184.609375 276.933594 183.773438 277.632812 C 183.425781 277.945312 183.460938 278.679688 183.21875 279.167969 C 182.9375 279.761719 182.554688 280.285156 182.242188 280.84375 C 181.859375 281.574219 181.511719 282.34375 181.058594 283.007812 C 180.886719 283.285156 180.953125 283.914062 180.328125 283.84375 C 180.292969 283.84375 180.257812 284.054688 180.1875 284.195312 C 180.121094 284.402344 180.085938 284.648438 179.945312 284.824219 C 179.355469 285.589844 178.832031 286.359375 178.65625 287.335938 C 178.65625 287.371094 178.625 287.441406 178.589844 287.441406 C 177.441406 288.347656 177.160156 289.816406 176.328125 290.933594 C 176.222656 291.070312 176.082031 291.210938 175.976562 291.351562 C 175.628906 291.839844 175.316406 292.363281 174.933594 292.851562 C 174.726562 293.132812 174.414062 293.339844 174.167969 293.621094 C 173.996094 293.792969 173.890625 294.039062 173.75 294.25 C 173.679688 294.351562 173.714844 294.492188 173.613281 294.527344 C 172.464844 295.261719 172.429688 296.691406 171.488281 297.601562 C 170.933594 298.125 170.585938 298.890625 170.167969 299.554688 C 169.46875 300.636719 168.773438 301.683594 168.078125 302.765625 C 167.972656 302.941406 167.871094 303.117188 167.765625 303.253906 C 166.511719 304.722656 165.257812 306.152344 164.285156 307.828125 C 163.9375 308.421875 163.660156 309.085938 163.277344 309.644531 C 162.511719 310.726562 161.710938 311.773438 160.875 312.820312 C 160.316406 313.519531 159.761719 314.21875 159.203125 314.878906 C 159.097656 315.019531 158.925781 315.089844 158.785156 315.195312 C 158.472656 315.4375 158.054688 315.648438 157.882812 315.996094 C 157.359375 317.078125 156.351562 317.742188 155.585938 318.546875 C 154.574219 319.628906 153.355469 320.570312 152.207031 321.546875 C 151.441406 322.210938 150.609375 322.839844 149.808594 323.433594 C 149.703125 323.539062 149.460938 323.433594 149.285156 323.503906 C 148.554688 323.816406 147.824219 324.167969 147.058594 324.445312 C 146.710938 324.585938 146.257812 324.480469 145.980469 324.65625 C 145.214844 325.179688 144.34375 325.074219 143.507812 325.179688 C 143.230469 325.214844 142.984375 325.390625 142.707031 325.421875 C 142.707031 325.492188 142.570312 325.390625 142.464844 325.355469 Z M 168.253906 261.957031 C 167.730469 261.957031 167.277344 261.992188 166.894531 261.957031 C 165.675781 261.78125 164.492188 261.292969 163.242188 261.78125 C 163.136719 261.816406 162.996094 261.710938 162.894531 261.675781 C 162.023438 261.46875 161.117188 261.1875 160.246094 261.082031 C 159.097656 260.945312 157.882812 261.117188 156.769531 260.769531 C 155.269531 260.316406 153.738281 260.453125 152.207031 260.28125 C 150.992188 260.140625 149.738281 260.246094 148.519531 260.210938 C 147.996094 260.210938 147.476562 260.070312 146.953125 260.035156 C 145.875 259.929688 144.761719 259.894531 143.648438 259.792969 C 142.601562 259.6875 141.59375 259.40625 140.550781 259.40625 C 139.679688 259.40625 138.808594 259.40625 137.976562 259.09375 C 137.835938 259.023438 137.660156 259.023438 137.523438 259.023438 C 136.027344 258.917969 134.53125 258.847656 133.066406 258.675781 C 132.511719 258.605469 132.023438 258.289062 131.46875 258.1875 C 130.703125 258.046875 129.9375 258.011719 129.171875 257.90625 C 127.988281 257.695312 126.769531 257.453125 125.585938 257.242188 C 125.238281 257.171875 124.855469 257.3125 124.507812 257.242188 C 123.324219 257.035156 122.175781 256.71875 121.027344 256.542969 C 119.738281 256.371094 118.417969 256.300781 117.128906 256.160156 C 115.667969 256.019531 114.207031 256.125 112.707031 255.984375 C 111.316406 255.847656 109.890625 255.847656 108.496094 256.160156 C 108.21875 256.230469 107.90625 256.265625 107.628906 256.230469 C 106.234375 256.089844 104.914062 256.40625 103.589844 256.859375 C 103.382812 256.929688 103.105469 257.136719 103.105469 257.277344 C 103.242188 258.324219 103.3125 259.40625 103.589844 260.417969 C 103.765625 261.082031 104.148438 261.675781 104.566406 262.234375 C 105.226562 263.074219 105.644531 264.050781 105.992188 265.027344 C 106.304688 265.9375 106.480469 266.878906 106.828125 267.75 C 107.035156 268.273438 107.070312 269.078125 107.800781 269.113281 L 108.878906 271.277344 C 109.402344 272.253906 109.960938 273.195312 110.480469 274.175781 C 110.65625 274.488281 110.863281 274.839844 110.96875 275.1875 C 111.316406 276.269531 111.628906 277.386719 111.976562 278.46875 C 112.011719 278.539062 112.046875 278.574219 112.082031 278.609375 C 112.5 279.203125 112.429688 279.761719 111.875 280.179688 C 111.664062 280.355469 111.316406 280.457031 111.246094 280.667969 C 111.039062 281.296875 110.378906 281.15625 110.167969 281.050781 C 109.75 280.878906 109.613281 281.15625 109.4375 281.296875 C 109.125 281.539062 108.878906 281.890625 108.636719 282.167969 C 107.976562 281.855469 106.550781 282.449219 105.957031 283.285156 C 105.367188 282.867188 104.148438 283.390625 103.554688 284.300781 C 103.207031 284.300781 102.894531 284.230469 102.6875 284.300781 C 102.023438 284.578125 101.398438 284.925781 100.738281 285.207031 C 100.214844 285.417969 99.589844 285.449219 99.101562 285.765625 C 98.058594 286.394531 96.839844 286.671875 95.726562 286.707031 C 94.679688 286.742188 93.8125 287.195312 92.835938 287.335938 C 91.722656 287.546875 90.75 288.207031 89.601562 288.207031 C 89.21875 288.207031 88.765625 288.347656 88.453125 288.558594 C 87.929688 288.941406 87.617188 289.046875 87.40625 288.105469 C 87.09375 288.59375 86.886719 288.941406 86.746094 289.152344 C 85.042969 289.152344 83.441406 289.117188 81.804688 289.152344 C 80.898438 289.1875 79.996094 289.292969 79.125 289.359375 C 78.984375 289.359375 78.847656 289.257812 78.671875 289.257812 C 78.21875 289.222656 77.769531 289.152344 77.316406 289.152344 C 76.863281 289.152344 76.410156 289.257812 75.957031 289.222656 C 75.714844 289.222656 75.472656 288.941406 75.226562 288.976562 C 74.671875 289.011719 74.042969 288.59375 73.523438 289.152344 C 73.488281 289.1875 73.382812 289.152344 73.3125 289.152344 C 72.339844 288.835938 71.328125 289.570312 70.355469 288.976562 C 70.320312 288.976562 70.285156 289.011719 70.214844 289.011719 C 69.660156 289.082031 68.996094 289.394531 68.546875 289.222656 C 67.816406 288.941406 66.875 289.464844 66.316406 288.628906 C 66.285156 288.59375 66.144531 288.59375 66.039062 288.628906 C 65.449219 288.800781 65.414062 288.453125 65.484375 288.035156 C 65.519531 287.71875 65.621094 287.40625 65.691406 287.089844 C 65.65625 287.089844 65.621094 287.058594 65.585938 287.058594 C 65.273438 287.441406 64.960938 287.859375 64.683594 288.242188 C 64.613281 288.207031 64.507812 288.175781 64.4375 288.140625 C 64.265625 287.265625 63.636719 287.789062 63.253906 287.648438 C 63.082031 287.617188 62.90625 287.441406 62.734375 287.371094 C 62.664062 287.335938 62.558594 287.300781 62.488281 287.265625 C 62.210938 287.160156 61.933594 287.058594 61.691406 286.917969 C 61.167969 286.601562 60.679688 286.289062 60.160156 285.972656 C 59.984375 285.871094 59.777344 285.800781 59.636719 285.695312 C 59.148438 285.347656 58.660156 285.03125 58 285.136719 C 57.863281 285.171875 57.6875 285.03125 57.546875 284.996094 C 57.410156 284.925781 57.269531 284.824219 57.128906 284.824219 C 56.433594 284.859375 55.773438 284.960938 55.179688 284.402344 C 55.113281 284.332031 54.972656 284.332031 54.867188 284.300781 C 54.347656 284.160156 53.859375 284.019531 53.335938 283.878906 C 53.335938 283.808594 53.335938 283.742188 53.371094 283.671875 C 53.199219 283.808594 52.988281 283.949219 52.640625 284.230469 C 53.199219 284.996094 53.71875 285.730469 54.277344 286.464844 C 54.730469 287.089844 55.320312 287.683594 55.632812 288.382812 C 56.296875 289.816406 57.445312 290.792969 58.523438 291.875 C 59.324219 292.675781 60.160156 293.445312 61.027344 294.179688 C 62.074219 295.050781 62.664062 296.273438 63.742188 297.144531 C 64.71875 297.949219 65.761719 298.683594 66.734375 299.484375 C 67.1875 299.867188 67.675781 300.253906 68.128906 300.671875 C 68.582031 301.054688 68.964844 301.511719 69.449219 301.859375 C 69.902344 302.207031 70.5625 302.3125 70.84375 302.730469 C 71.609375 303.8125 72.6875 304.476562 73.765625 305.105469 C 74.355469 305.453125 75.019531 305.734375 75.644531 305.976562 C 76.167969 306.1875 76.722656 306.605469 77.316406 306.746094 C 78.046875 306.886719 78.636719 307.339844 79.265625 307.652344 C 79.75 307.863281 80.308594 308.003906 80.796875 308.210938 C 81.527344 308.527344 82.222656 308.875 82.882812 309.261719 C 83.71875 309.714844 84.519531 310.238281 85.460938 310.832031 C 85.703125 310.761719 85.667969 310.867188 86.574219 311.320312 C 87.757812 311.878906 89.007812 312.296875 90.261719 312.679688 C 91.167969 312.960938 92.140625 313.101562 93.082031 313.34375 C 93.394531 313.414062 93.671875 313.554688 93.949219 313.660156 C 94.578125 313.832031 95.238281 313.972656 95.863281 314.183594 L 98.160156 314.914062 C 98.335938 314.949219 98.476562 315.054688 98.648438 315.054688 C 99.242188 315.054688 99.832031 314.878906 100.390625 315.019531 C 101.292969 315.230469 102.128906 315.578125 103.070312 315.265625 C 103.136719 315.230469 103.242188 315.195312 103.347656 315.230469 C 103.835938 315.265625 104.320312 315.335938 104.808594 315.40625 C 105.503906 315.472656 106.375 315.335938 106.863281 315.683594 C 107.628906 316.3125 107.765625 315.753906 108.082031 315.335938 C 108.53125 315.472656 108.914062 315.648438 109.472656 315.824219 C 109.75 315.71875 110.238281 315.542969 110.761719 315.335938 C 110.761719 315.371094 110.828125 315.542969 110.863281 315.753906 C 111.316406 315.648438 111.769531 315.578125 112.222656 315.4375 C 112.535156 315.335938 112.847656 315.054688 113.160156 315.089844 C 114.9375 315.300781 116.503906 314.53125 118.136719 314.113281 C 118.9375 313.902344 119.738281 313.660156 120.539062 313.378906 C 121.164062 313.171875 122.035156 313.101562 122.347656 312.644531 C 122.730469 312.085938 123.078125 312.332031 123.460938 312.367188 C 124.574219 312.4375 124.925781 312.15625 125.132812 311.003906 C 125.167969 310.761719 125.34375 310.550781 125.375 310.308594 C 125.480469 309.75 125.933594 309.679688 126.351562 309.503906 C 126.558594 309.398438 126.734375 309.261719 126.941406 309.15625 L 127.117188 309.328125 C 127.289062 309.050781 127.429688 308.738281 127.640625 308.457031 C 127.742188 308.351562 127.953125 308.28125 128.125 308.246094 C 128.683594 308.179688 129.273438 308.144531 129.761719 308.109375 C 130.039062 308.527344 130.25 309.050781 130.597656 309.433594 C 131.152344 310.0625 131.851562 310.550781 132.441406 311.179688 C 133.3125 312.121094 134.148438 313.136719 135.015625 314.113281 L 135.226562 314.320312 C 136.476562 315.542969 137.660156 316.765625 138.636719 318.230469 C 138.878906 318.582031 139.367188 318.859375 139.785156 318.894531 C 140.515625 318.964844 140.933594 319.175781 141.070312 320.082031 C 142.21875 320.082031 143.402344 320.1875 144.585938 320.046875 C 145.28125 319.941406 146.117188 319.90625 146.605469 319.140625 C 146.78125 318.859375 147.128906 318.722656 147.371094 318.476562 C 147.582031 318.371094 147.71875 318.164062 147.859375 318.023438 C 148.378906 317.5 148.9375 316.976562 149.496094 316.453125 C 149.667969 316.3125 149.773438 316.066406 149.980469 315.964844 C 151.339844 315.371094 151.929688 314.078125 152.765625 313.03125 C 152.90625 312.855469 153.148438 312.507812 153.253906 312.542969 C 153.808594 312.679688 153.808594 312.296875 153.949219 311.984375 C 154.054688 311.773438 154.191406 311.5625 154.332031 311.355469 C 154.785156 310.726562 155.304688 310.167969 155.6875 309.503906 C 156.175781 308.703125 156.941406 308.074219 157.082031 307.0625 C 157.117188 306.746094 157.535156 306.46875 157.742188 306.1875 C 158.472656 305.210938 159.238281 304.199219 159.96875 303.21875 C 160.351562 302.730469 160.699219 302.207031 161.046875 301.683594 C 161.570312 300.953125 162.160156 300.253906 162.683594 299.519531 C 163.136719 298.890625 163.519531 298.191406 163.9375 297.53125 C 164.285156 296.972656 164.703125 296.449219 164.910156 295.820312 C 165.363281 294.632812 166.269531 293.828125 167.136719 292.992188 C 167.730469 292.433594 168.390625 291.769531 168.601562 291 C 168.84375 290.234375 169.261719 289.675781 169.714844 289.082031 C 170.585938 288 171.316406 286.777344 172.117188 285.625 C 172.359375 285.277344 172.53125 284.890625 173.019531 284.925781 C 173.054688 284.925781 173.054688 284.859375 173.089844 284.789062 C 172.984375 284.71875 172.882812 284.648438 172.8125 284.613281 C 173.019531 284.367188 173.296875 284.160156 173.4375 283.878906 C 174.167969 282.484375 174.863281 281.050781 175.628906 279.65625 C 176.640625 277.804688 177.753906 276.058594 178.414062 274.035156 C 178.832031 272.8125 179.179688 271.523438 179.738281 270.371094 C 180.398438 268.972656 180.886719 267.714844 180.257812 266.109375 C 180.015625 265.445312 179.738281 264.886719 179.320312 264.328125 C 178.726562 263.492188 178.03125 263.074219 176.988281 263.457031 C 176.953125 263.492188 176.847656 263.386719 176.777344 263.351562 C 175.839844 262.828125 174.796875 262.621094 173.714844 262.828125 C 173.613281 262.863281 173.472656 262.898438 173.367188 262.863281 C 172.253906 262.6875 171.105469 262.445312 169.992188 262.269531 C 169.539062 262.199219 169.085938 262.164062 168.636719 262.128906 C 168.636719 262.199219 168.601562 262.234375 168.601562 262.304688 C 168.425781 262.199219 168.320312 262.027344 168.253906 261.957031 Z M 57.097656 272.671875 C 56.921875 272.8125 56.886719 272.847656 56.851562 272.882812 C 56.261719 273.789062 55.914062 273.824219 54.832031 273.722656 C 54.207031 273.652344 53.546875 274 52.882812 274.175781 C 52.816406 274.210938 52.710938 274.382812 52.710938 274.453125 C 52.917969 274.976562 53.058594 275.570312 53.441406 275.957031 C 53.894531 276.445312 54.484375 276.792969 55.078125 277.175781 C 55.179688 277.246094 55.425781 277.246094 55.5625 277.175781 C 56.191406 276.863281 56.816406 276.515625 57.480469 276.199219 C 57.582031 276.128906 57.792969 276.128906 57.863281 276.199219 C 58.175781 276.582031 58.453125 276.304688 58.695312 276.164062 C 59.148438 275.957031 59.566406 275.640625 60.019531 275.464844 C 60.367188 275.328125 60.820312 275.117188 61.167969 275.222656 C 61.691406 275.363281 62.074219 275.222656 62.351562 274.90625 C 63.152344 273.964844 64.402344 274.210938 65.378906 273.722656 C 66.039062 273.40625 66.804688 273.40625 67.5 273.230469 C 67.605469 273.195312 67.710938 273.058594 67.816406 272.988281 C 68.058594 272.847656 68.300781 272.636719 68.546875 272.535156 C 68.996094 272.394531 69.484375 272.464844 69.902344 272.253906 C 70.5625 271.90625 71.15625 271.417969 71.816406 270.996094 C 71.992188 270.859375 72.199219 270.753906 72.410156 270.648438 C 72.859375 270.4375 73.070312 269.914062 72.757812 269.496094 C 72.652344 269.390625 72.199219 269.355469 72.199219 269.390625 C 71.886719 270.230469 70.980469 270.019531 70.390625 270.335938 C 69.589844 270.789062 68.648438 270.929688 67.746094 271.171875 C 66.839844 271.417969 66.003906 271.976562 64.996094 271.695312 C 64.855469 271.660156 64.683594 271.730469 64.507812 271.765625 C 63.671875 271.941406 62.871094 272.289062 62.074219 272.464844 C 61.132812 272.636719 60.125 272.777344 59.113281 272.847656 C 58.695312 272.882812 58.277344 272.988281 57.894531 273.128906 C 57.375 273.40625 57.0625 273.441406 57.097656 272.671875 Z M 52.816406 271.871094 L 53.023438 271.976562 C 53.09375 271.871094 53.164062 271.730469 53.199219 271.625 C 53.335938 271.101562 53.648438 270.824219 54.207031 270.753906 C 55.078125 270.613281 55.84375 270.300781 56.539062 269.742188 C 56.609375 269.707031 56.714844 269.671875 56.78125 269.671875 C 57.617188 269.460938 58.523438 269.355469 59.289062 269.007812 C 60.019531 268.660156 60.714844 268.414062 61.515625 268.34375 C 61.96875 268.308594 62.386719 268.066406 62.839844 267.960938 C 63.253906 267.855469 63.671875 267.785156 64.089844 267.644531 C 64.578125 267.507812 65.066406 267.296875 65.550781 267.15625 C 66.003906 267.019531 66.527344 266.984375 66.945312 266.738281 C 67.117188 266.632812 67.257812 266.144531 67.1875 265.902344 C 67.015625 265.308594 66.527344 265.167969 65.96875 265.308594 C 65.066406 265.550781 64.160156 265.796875 63.324219 266.109375 C 61.96875 266.632812 60.679688 267.367188 59.113281 267.367188 C 58.488281 267.367188 57.6875 267.925781 57.234375 267.679688 C 56.363281 267.226562 55.773438 267.855469 55.078125 267.890625 C 53.929688 267.960938 52.917969 268.832031 51.667969 268.796875 C 50.96875 268.761719 50.238281 268.9375 49.542969 269.078125 C 49.300781 269.113281 48.988281 269.289062 48.882812 269.460938 C 48.777344 269.601562 48.882812 269.984375 49.023438 270.125 C 49.753906 270.824219 50.484375 271.523438 50.902344 272.464844 C 50.96875 272.605469 51.039062 272.707031 51.144531 272.8125 C 51.632812 272.253906 52.117188 271.765625 52.675781 271.136719 C 52.710938 271.554688 52.78125 271.695312 52.816406 271.871094 Z M 48.777344 266.914062 C 48.707031 266.84375 48.671875 266.738281 48.605469 266.667969 C 48.742188 266.84375 48.847656 266.984375 48.988281 267.15625 C 49.054688 267.054688 49.125 267.019531 49.160156 266.984375 C 49.507812 266.460938 49.753906 265.796875 50.585938 265.832031 C 50.902344 265.832031 51.285156 265.761719 51.5625 265.621094 C 52.050781 265.414062 52.5 265.167969 52.953125 264.921875 C 53.058594 264.855469 53.164062 264.820312 53.300781 264.75 C 53.753906 264.503906 54.171875 264.121094 54.695312 263.980469 C 55.914062 263.667969 57.128906 263.457031 58.347656 263.210938 C 58.90625 263.109375 59.425781 263.003906 59.984375 262.898438 C 60.4375 262.828125 61.132812 261.921875 60.925781 261.640625 C 60.574219 261.257812 60.054688 260.769531 59.601562 260.769531 C 58.488281 260.769531 57.480469 261.433594 56.328125 261.433594 C 56.261719 261.433594 56.191406 261.535156 56.121094 261.570312 C 55.285156 261.921875 54.484375 262.339844 53.617188 262.550781 C 52.433594 262.828125 51.144531 262.792969 49.996094 263.144531 C 49.265625 263.351562 48.324219 263.109375 47.804688 263.945312 C 47.769531 264.015625 47.59375 263.980469 47.492188 263.980469 C 46.65625 263.980469 46.375 264.503906 46.757812 265.273438 C 47.109375 266.003906 47.421875 266.773438 47.875 267.75 C 48.082031 267.472656 48.429688 267.191406 48.777344 266.914062 Z M 67.117188 277.597656 C 66.5625 277.804688 66.074219 278.085938 65.585938 278.15625 C 64.785156 278.257812 63.953125 278.574219 63.117188 278.222656 C 63.046875 278.191406 62.941406 278.257812 62.871094 278.292969 C 62.28125 278.75 61.621094 278.921875 60.890625 278.886719 C 60.472656 278.851562 60.125 279.132812 60.191406 279.550781 C 60.226562 279.761719 60.644531 280.039062 60.925781 280.074219 C 61.585938 280.179688 62.140625 280.527344 62.90625 280.5625 C 63.742188 280.597656 64.542969 281.261719 65.378906 281.609375 C 65.550781 281.679688 65.902344 281.574219 66.003906 281.4375 C 66.386719 280.878906 66.769531 280.320312 67.015625 279.691406 C 67.257812 279.027344 67.433594 278.292969 67.117188 277.597656 Z M 45.125 257.941406 C 45.125 258.21875 45.089844 258.5 45.125 258.746094 C 45.195312 259.269531 45.261719 259.792969 45.402344 260.28125 C 45.472656 260.523438 45.609375 260.804688 45.820312 260.910156 C 46.097656 261.082031 46.480469 261.1875 46.691406 260.734375 C 46.726562 260.628906 46.933594 260.523438 47.003906 260.523438 C 47.804688 260.734375 48.1875 260.210938 48.535156 259.582031 C 48.988281 260.175781 49.472656 259.894531 49.960938 259.722656 C 51.144531 259.269531 52.433594 259.023438 53.371094 258.117188 C 53.582031 257.90625 54 257.976562 54.242188 257.800781 C 54.554688 257.558594 54.796875 257.242188 55.007812 257 C 54.625 257 54.136719 256.929688 53.683594 257 C 53.128906 257.101562 52.570312 257.347656 52.015625 257.417969 C 51.386719 257.488281 50.9375 257.871094 50.378906 258.046875 C 50.03125 258.152344 49.820312 258.605469 49.40625 258.1875 C 49.300781 258.1875 49.089844 258.253906 48.988281 258.253906 C 48.464844 258.289062 47.941406 258.429688 47.457031 258.394531 C 46.726562 258.324219 45.992188 258.117188 45.125 257.941406 Z M 49.4375 253.296875 C 49.335938 253.226562 49.195312 253.054688 49.054688 253.054688 C 48.535156 253.125 48.011719 253.226562 47.492188 253.332031 C 47.140625 253.402344 46.792969 253.4375 46.480469 253.578125 C 46.027344 253.785156 45.296875 253.507812 45.089844 254.207031 C 44.742188 255.324219 44.914062 256.441406 45.054688 257.453125 C 45.472656 257.101562 45.855469 256.789062 46.238281 256.476562 C 46.726562 256.089844 47.003906 255.359375 47.804688 255.425781 L 47.804688 255.359375 C 47.941406 255.289062 48.082031 255.253906 48.222656 255.21875 C 48.847656 254.972656 49.472656 254.660156 49.996094 254.207031 C 50.238281 253.996094 50.273438 253.613281 50.378906 253.296875 C 50.414062 253.226562 50.238281 252.984375 50.203125 252.984375 C 49.960938 253.054688 49.753906 253.160156 49.4375 253.296875 Z M 44.777344 250.992188 C 44.914062 251.097656 45.019531 251.167969 45.160156 251.273438 C 45.367188 249.980469 46.480469 250.402344 47.140625 249.910156 C 47.28125 249.808594 47.421875 249.738281 47.523438 249.632812 C 47.976562 249.179688 47.90625 248.621094 47.457031 248.199219 C 46.691406 247.539062 45.925781 246.804688 45.195312 246.140625 C 45.089844 246.035156 44.914062 246 44.777344 245.898438 C 44.707031 246.035156 44.566406 246.210938 44.566406 246.351562 C 44.601562 246.804688 44.707031 247.257812 44.707031 247.710938 C 44.707031 248.828125 44.742188 249.910156 44.777344 250.992188 Z M 44.777344 250.992188 " fill-opacity="1" fill-rule="nonzero"/></g><g clip-path="url(#8013237ada)"><path fill="#000000" d="M 212.941406 103.453125 C 210.769531 104.273438 208.390625 104.789062 205.90625 104.789062 C 195.722656 104.734375 187.5 97.027344 187.5 87.574219 C 187.5 78.121094 195.722656 70.363281 205.90625 70.363281 C 216.09375 70.363281 224.316406 78.070312 224.316406 87.574219 C 226.902344 112.855469 196.808594 130.734375 196.808594 130.734375 L 194.429688 127.910156 C 194.429688 127.859375 214.335938 112.546875 212.941406 103.453125 Z M 212.941406 103.453125 " fill-opacity="1" fill-rule="nonzero"/></g><g clip-path="url(#a43c59a468)"><path fill="#000000" d="M 252.289062 103.453125 C 250.117188 104.273438 247.738281 104.789062 245.257812 104.789062 C 235.070312 104.789062 226.847656 97.082031 226.847656 87.574219 C 226.847656 78.070312 235.070312 70.363281 245.257812 70.363281 C 255.441406 70.363281 263.664062 78.070312 263.664062 87.574219 C 266.25 112.855469 236.15625 130.734375 236.15625 130.734375 L 233.777344 127.910156 C 233.777344 127.859375 253.683594 112.546875 252.289062 103.453125 Z M 252.289062 103.453125 " fill-opacity="1" fill-rule="nonzero"/></g></svg>